<svg version="1" xmlns="http://www.w3.org/2000/svg" width="933.333" height="933.333" viewBox="0 0 700.000000 700.000000"><path d="M343.5 1.6c-1.7.9-4.2 3.2-5.5 5.1-2.5 3.6-2.5 3.7-2.6 30.7-.2 28.8.2 32.4 4.4 36.8 6.6 7.1 19.3 5.3 23.1-3.2 1.5-3.4 1.7-7.4 1.6-32.2 0-25.8-.2-28.6-1.9-31.4-3.7-6.1-13-8.9-19.1-5.8zM138.9 85.8c-7.2 3.2-10.7 11.4-7.9 18.8 1.6 4.2 38.8 41.1 43.3 42.9 6.7 2.7 13.9 0 17.6-6.5 2.3-4.2 2.6-7.5 1.1-11.7-1.2-3.2-38.1-40.7-42.2-42.9-2.8-1.4-9.1-1.8-11.9-.6zM548.5 86.9c-1.6 1-11.6 10.6-22.2 21.2-19.9 20.2-21.2 22.1-19.9 28.8 1.8 8.2 10.6 13.6 18.4 11 2.7-.9 9.1-6.7 23.9-21.4 16.8-16.9 20.3-20.8 20.8-23.9 1.2-6-.2-10.1-4.5-14-3.4-3.1-4.7-3.6-8.8-3.6-2.9 0-5.9.7-7.7 1.9zM331.9 105.4c-.2.2-3.1.7-6.4 1-27.3 2.7-59.1 14.3-84.2 30.7-7.8 5-19.4 13.9-22.9 17.3-1.1 1.2-4.1 3.9-6.5 6.2-5.8 5.3-17.4 18.3-23.2 26.2-21 28-34.3 61.6-38.7 97.7-.8 6.9-.6 42.3.3 47.7.3 1.6.8 4.7 1.2 7 7.2 44.4 31.5 87.6 66 117.8 22.8 19.9 35.4 35.8 45.5 57.3 6.8 14.6 8 19.1 8.1 29.3.1 14.1.4 13.2-4.2 14.4-13.2 3.6-15.6 21.1-3.9 28.5 2.2 1.4 4.9 2.5 6 2.5 1.1 0 2 .6 2.1 1.2.3 4.9-.1 17.1-.5 17.6-.4.3-1.6.7-2.9.9-6.5 1-13.3 10.1-12.4 16.6 1 7.3 6 13.1 12.3 14.3 1.9.3 3.4.9 3.5 1.3 0 .3.1 2.6.3 5.1.6 9.4 6.7 18.4 15 22.1 5.2 2.3 7.5 2.7 14.4 2.8 4.8.1 5.3.4 6.3 2.8 1 2.7 7 10.6 9.9 13.1 4.4 3.8 14 9.4 18.4 10.8 11.6 3.7 26.4 2.3 37.1-3.4 6.6-3.6 16-12.5 19.3-18.4l2.7-4.8 6-.1c10.2-.1 14.9-1.7 20.9-6.9 5.6-5 8.5-11.5 8.8-20.2.1-3.2.5-3.8 3-4.3 7.4-1.7 13.2-12 10.9-19.7-1.4-4.6-6.2-9.5-10.4-10.6l-3.2-.8-.1-9.7-.1-9.7 3.8-1c4.4-1.2 8.4-5.5 9.8-10.6 2.2-7.9-1.3-15.1-9-18.6l-4.9-2.3.4-12c.5-13.3 1.1-15.5 8.6-31.3 9.2-19.2 21.5-35.7 38-51 20.5-18.9 30.2-29.7 41-45.8 6.3-9.3 14.1-23.9 17.8-33.4 1.6-4.1 3.3-8.4 3.7-9.5.5-1.1.9-2.2 1-2.5.1-.3.5-1.2.8-2 1.1-2.7 5.5-20.3 6.6-26.5 2.3-12.8 2.6-17.6 2.6-35.5 0-22.3-1-32-5-48-.9-3.6-1.8-7.3-2-8.3-1.6-6.9-10.3-28.5-15.1-37.7-12-22.5-31.2-46.2-50.5-62.2-10.4-8.7-28.4-20.2-40.9-26.2-18-8.6-32.8-13.1-60-18.2-3.9-.7-44.4-1.6-45.1-1zM55.5 291.1c-6.4 1.8-10.6 8.4-9.9 15.4.5 4.7 2.9 8.3 7.4 10.9 3 1.8 5.5 2 32.1 2H114l3.7-3.1c2.3-1.8 4.4-4.7 5.3-7.1 1.3-3.7 1.3-4.7 0-8.4-.9-2.5-3-5.4-5.3-7.2l-3.9-3.1-27.6-.1c-15.3-.1-29.1.2-30.7.7zM586.9 291c-7.1 2-11.3 8-10.5 14.9.8 7.1 4.7 11.5 11.1 12.8 2.2.5 15.7.8 30.1.7 21.7-.1 26.6-.4 29.1-1.8 10.5-5.4 10.4-20.6-.1-25.5-3.7-1.8-6.5-1.9-30.6-1.9-14.6.1-27.7.4-29.1.8zM173.5 462.1c-3.1 1.7-40.5 39.1-42.1 42.1-5.2 9.9 3.9 22 15.4 20.3 4.1-.6 5.8-2.1 23.7-19.8 19.5-19.4 22.2-22.5 23.1-26.8 1.2-6.2-3-13.7-8.9-15.9-3.6-1.3-8.6-1.2-11.2.1zM514.5 462.6c-6.6 3.4-10 11.4-7.5 17.8 1.2 3.3 34.4 37.2 40.7 41.7 4.8 3.3 9.1 3.7 14.2 1.1 6.1-3 9.3-10.1 7.6-16.9-.7-3.1-38.1-41.4-42.7-43.9-3.5-1.8-8.5-1.8-12.3.2z"/></svg>